<svg width="166" height="23" viewBox="0 0 166 23" fill="none" xmlns="http://www.w3.org/2000/svg">
<path d="M161.305 4.40702C162.194 3.83529 163.362 3.87591 164.238 4.46576C165.044 4.99598 165.638 5.77413 165.924 6.67241C166.031 7.0138 166.025 7.37921 165.905 7.71681C165.785 8.05442 165.557 8.34708 165.255 8.5533C164.952 8.75951 164.59 8.86881 164.22 8.86569C163.849 8.86257 163.489 8.7472 163.19 8.53593L160.263 6.46437C160.263 5.39238 160.741 4.76925 161.305 4.40849V4.40702Z" fill="url(#paint0_linear_1_14)"/>
<path d="M152.355 4.40702C151.466 3.83529 150.298 3.87591 149.423 4.46576C148.617 4.99598 148.023 5.77413 147.737 6.67241C147.63 7.0138 147.636 7.37921 147.756 7.71681C147.876 8.05442 148.104 8.34708 148.406 8.5533C148.709 8.75951 149.071 8.86881 149.442 8.86569C149.812 8.86257 150.172 8.7472 150.471 8.53593L153.398 6.46437C153.398 5.39238 152.92 4.76925 152.356 4.40849L152.355 4.40702Z" fill="url(#paint1_linear_1_14)"/>
<path d="M151.813 6.24308C151.648 6.08492 151.425 5.99609 151.192 5.99609C150.96 5.99609 150.737 6.08492 150.572 6.24308C149.818 6.96363 149.203 7.80804 148.756 8.73658C149.036 8.8474 149.341 8.88706 149.642 8.85174C149.942 8.81642 150.228 8.70732 150.472 8.5349L151.947 7.27053C152.046 7.10928 152.087 6.92071 152.063 6.73464C152.038 6.54856 151.95 6.37559 151.813 6.24308Z" fill="#5C586F"/>
<path d="M164.124 13.7075C163.693 16.7424 161.668 18.3763 156.83 18.3763C151.299 18.3763 149.445 16.2421 149.445 12.3164C149.446 11.1994 149.72 10.0982 150.244 9.102C150.769 8.1058 151.53 7.2426 152.466 6.58231C153.402 5.92202 154.487 5.4832 155.631 5.30139C156.776 5.11958 157.95 5.1999 159.056 5.53584L164.124 13.7075Z" fill="url(#paint2_linear_1_14)"/>
<path d="M164.215 12.3184C164.217 12.7835 164.187 13.2483 164.124 13.7095C163.419 13.8975 162.678 13.9262 161.96 13.7932C161.241 13.6603 160.565 13.3694 159.982 12.9432C159.4 12.517 158.928 11.967 158.602 11.3362C158.277 10.7053 158.108 10.0107 158.107 9.30648C158.107 7.34849 158.315 6.19524 159.054 5.53735C160.551 5.99287 161.858 6.89581 162.787 8.11514C163.715 9.33447 164.215 10.8068 164.215 12.3184Z" fill="url(#paint3_linear_1_14)"/>
<path d="M151.842 12.2718C152.31 12.2718 152.69 11.9781 152.69 11.6159C152.69 11.2536 152.31 10.96 151.842 10.96C151.374 10.96 150.994 11.2536 150.994 11.6159C150.994 11.9781 151.374 12.2718 151.842 12.2718Z" fill="#FFAECF"/>
<path d="M161.818 12.2718C162.286 12.2718 162.666 11.9781 162.666 11.6159C162.666 11.2536 162.286 10.96 161.818 10.96C161.35 10.96 160.97 11.2536 160.97 11.6159C160.97 11.9781 161.35 12.2718 161.818 12.2718Z" fill="#FFAECF"/>
<path d="M154.955 10.2576C155.104 9.37542 154.482 8.54416 153.565 8.40095C152.649 8.25774 151.785 8.85682 151.636 9.73902C151.488 10.6212 152.11 11.4525 153.027 11.5957C153.943 11.7389 154.807 11.1398 154.955 10.2576Z" fill="white"/>
<path d="M160.365 11.6159C161.293 11.6159 162.046 10.8914 162.046 9.99767C162.046 9.10392 161.293 8.37939 160.365 8.37939C159.436 8.37939 158.684 9.10392 158.684 9.99767C158.684 10.8914 159.436 11.6159 160.365 11.6159Z" fill="white"/>
<path d="M154.306 10.1134C154.394 9.58619 154.022 9.0897 153.474 9.00448C152.927 8.91927 152.411 9.27761 152.322 9.80486C152.234 10.3321 152.606 10.8286 153.154 10.9138C153.702 10.999 154.217 10.6407 154.306 10.1134Z" fill="#383842"/>
<path d="M160.365 10.9618C160.918 10.9618 161.366 10.5301 161.366 9.99751C161.366 9.46494 160.918 9.0332 160.365 9.0332C159.811 9.0332 159.363 9.46494 159.363 9.99751C159.363 10.5301 159.811 10.9618 160.365 10.9618Z" fill="#383842"/>
<path d="M157.388 12.1077C157.187 12.1064 156.992 12.0459 156.828 11.9344C156.665 12.0459 156.47 12.1064 156.269 12.1077C156.128 12.1047 155.989 12.0736 155.861 12.0164C155.733 11.9592 155.618 11.8771 155.525 11.7753C155.501 11.7513 155.483 11.7231 155.471 11.6924C155.46 11.6616 155.454 11.629 155.455 11.5962C155.457 11.5634 155.464 11.5312 155.479 11.5014C155.493 11.4715 155.513 11.4447 155.538 11.4224C155.563 11.4 155.592 11.3826 155.624 11.3712C155.656 11.3597 155.69 11.3544 155.724 11.3556C155.758 11.3568 155.791 11.3644 155.822 11.3781C155.853 11.3917 155.881 11.4111 155.904 11.4351C155.948 11.4891 156.004 11.5328 156.068 11.5628C156.132 11.5929 156.202 11.6085 156.273 11.6085C156.344 11.6085 156.414 11.5929 156.478 11.5628C156.541 11.5328 156.597 11.4891 156.641 11.4351C156.665 11.41 156.694 11.3901 156.727 11.3764C156.76 11.3627 156.795 11.3557 156.83 11.3557C156.866 11.3557 156.901 11.3627 156.934 11.3764C156.967 11.3901 156.996 11.41 157.02 11.4351C157.064 11.4891 157.12 11.5328 157.183 11.5628C157.247 11.5929 157.317 11.6085 157.388 11.6085C157.459 11.6085 157.529 11.5929 157.593 11.5628C157.657 11.5328 157.713 11.4891 157.756 11.4351C157.78 11.4111 157.808 11.3917 157.839 11.3781C157.87 11.3644 157.903 11.3568 157.937 11.3556C157.971 11.3544 158.005 11.3597 158.037 11.3712C158.069 11.3826 158.098 11.4 158.123 11.4224C158.148 11.4447 158.168 11.4715 158.182 11.5014C158.196 11.5312 158.204 11.5634 158.206 11.5962C158.207 11.629 158.201 11.6616 158.189 11.6924C158.178 11.7231 158.16 11.7513 158.136 11.7753C158.042 11.8775 157.927 11.9599 157.799 12.0171C157.67 12.0743 157.53 12.1052 157.388 12.1077H157.388Z" fill="#383842"/>
<path d="M157.751 10.303C157.751 10.5889 157.339 10.8199 156.83 10.8199C156.322 10.8199 155.909 10.5889 155.909 10.303C155.909 10.0172 156.322 9.98389 156.83 9.98389C157.339 9.98389 157.751 10.0177 157.751 10.303Z" fill="#383842"/>
<path d="M11.8065 10.2387C11.2294 10.1546 10.6879 9.91789 10.2423 9.55501C9.7967 9.19213 9.46448 8.7173 9.28266 8.18341C9.10084 7.64951 9.07656 7.07751 9.21251 6.53111C9.34847 5.98471 9.63932 5.48536 10.0527 5.08869C11.2848 3.90264 13.6554 3.54433 14.8875 4.73038C14.9688 4.80861 15.0439 4.89255 15.1123 4.98149L11.8065 10.2387Z" fill="url(#paint4_linear_1_14)"/>
<path d="M14.5152 9.38398C14.1653 9.7215 13.7377 9.9748 13.267 10.1233C12.7963 10.2718 12.2959 10.3113 11.8064 10.2386C11.6112 9.68424 11.5443 9.09548 11.6104 8.51358C11.6764 7.93168 11.8737 7.3707 12.1886 6.86991C12.5034 6.36912 12.9282 5.94063 13.4331 5.61442C13.938 5.28822 14.5109 5.07218 15.1116 4.98145C16.0686 6.21547 15.6654 8.27723 14.5152 9.38398Z" fill="url(#paint5_linear_1_14)"/>
<path d="M3.83973 10.2387C4.41682 10.1546 4.95833 9.91789 5.40394 9.55501C5.84955 9.19213 6.18176 8.7173 6.36358 8.18341C6.5454 7.64951 6.56968 7.07751 6.43373 6.53111C6.29778 5.98471 6.00692 5.48536 5.59356 5.08869C4.36145 3.90264 1.9908 3.54433 0.759203 4.73038C0.677629 4.80848 0.602324 4.89243 0.533936 4.98149L3.83973 10.2387Z" fill="url(#paint6_linear_1_14)"/>
<path d="M1.13143 9.38398C1.48119 9.72149 1.90874 9.97479 2.37934 10.1233C2.84993 10.2718 3.35029 10.3113 3.83973 10.2386C3.98665 9.82267 4.06139 9.38623 4.06093 8.94686C4.06069 7.98971 3.70514 7.06415 3.05842 6.33713C2.4117 5.6101 1.51637 5.12947 0.53394 4.98193C-0.420016 6.21547 -0.0193138 8.27723 1.13143 9.38398Z" fill="url(#paint7_linear_1_14)"/>
<path d="M2.36934 6.65742C2.27289 6.56501 2.157 6.49357 2.02946 6.4479C1.90193 6.40223 1.7657 6.38341 1.62997 6.39268C1.49424 6.40196 1.36214 6.43913 1.24259 6.50168C1.12303 6.56423 1.01879 6.65072 0.936876 6.75532C0.66017 7.10533 0.412444 7.47571 0.195984 7.86305C0.378186 8.43414 0.698696 8.9554 1.13113 9.38392C1.37921 9.62321 1.66709 9.82091 1.98287 9.96887L2.61698 7.52628C2.65704 7.37319 2.65529 7.21273 2.61189 7.06049C2.5685 6.90825 2.48494 6.76939 2.36934 6.65742Z" fill="#FD748D"/>
<path d="M0.793833 12.651C0.754607 12.3647 0.735072 12.0763 0.735355 11.7875C0.751189 9.988 1.50491 8.26737 2.83241 7.00027C4.15992 5.73317 5.95369 5.02222 7.82316 5.02222C9.69263 5.02222 11.4864 5.73317 12.8139 7.00027C14.1414 8.26737 14.8951 9.988 14.911 11.7875C14.9115 12.0764 14.8919 12.3651 14.8525 12.6515L0.793833 12.651Z" fill="url(#paint8_linear_1_14)"/>
<path d="M14.853 12.6514C14.4035 15.8708 11.4272 17.1229 7.8234 17.1229C4.21962 17.1229 1.24283 15.8708 0.793823 12.6509C2.62444 10.966 4.45506 11.5598 6.38738 8.0447C6.52531 7.79364 6.73238 7.58398 6.98589 7.4387C7.17536 7.32966 7.38585 7.25875 7.6046 7.23026C7.82336 7.20176 8.04585 7.21628 8.25862 7.27292C8.47138 7.32957 8.67 7.42717 8.84246 7.55983C9.01491 7.69248 9.15762 7.85743 9.26196 8.0447C11.1907 11.5598 13.0249 10.966 14.8555 12.6514H14.853Z" fill="url(#paint9_linear_1_14)"/>
<path d="M3.27476 11.898C3.70163 11.898 4.04769 11.6302 4.04769 11.2998C4.04769 10.9695 3.70163 10.7017 3.27476 10.7017C2.84788 10.7017 2.50183 10.9695 2.50183 11.2998C2.50183 11.6302 2.84788 11.898 3.27476 11.898Z" fill="#FFAECF"/>
<path d="M12.3713 11.898C12.7982 11.898 13.1442 11.6302 13.1442 11.2998C13.1442 10.9695 12.7982 10.7017 12.3713 10.7017C11.9444 10.7017 11.5984 10.9695 11.5984 11.2998C11.5984 11.6302 11.9444 11.898 12.3713 11.898Z" fill="#FFAECF"/>
<path d="M4.59983 11.2998C5.44629 11.2998 6.13247 10.6393 6.13247 9.82447C6.13247 9.00966 5.44629 8.34912 4.59983 8.34912C3.75338 8.34912 3.0672 9.00966 3.0672 9.82447C3.0672 10.6393 3.75338 11.2998 4.59983 11.2998Z" fill="white"/>
<path d="M11.0462 11.2998C11.8926 11.2998 12.5788 10.6393 12.5788 9.82447C12.5788 9.00966 11.8926 8.34912 11.0462 8.34912C10.1997 8.34912 9.51355 9.00966 9.51355 9.82447C9.51355 10.6393 10.1997 11.2998 11.0462 11.2998Z" fill="white"/>
<path d="M4.59988 10.7041C5.10455 10.7041 5.51366 10.3103 5.51366 9.82445C5.51366 9.33865 5.10455 8.94482 4.59988 8.94482C4.09521 8.94482 3.6861 9.33865 3.6861 9.82445C3.6861 10.3103 4.09521 10.7041 4.59988 10.7041Z" fill="#383842"/>
<path d="M11.0463 10.7041C11.551 10.7041 11.9601 10.3103 11.9601 9.82445C11.9601 9.33865 11.551 8.94482 11.0463 8.94482C10.5416 8.94482 10.1325 9.33865 10.1325 9.82445C10.1325 10.3103 10.5416 10.7041 11.0463 10.7041Z" fill="#383842"/>
<path d="M8.33192 11.7705C8.15038 11.7691 7.97338 11.7157 7.82341 11.6172C7.67358 11.716 7.49649 11.7694 7.31491 11.7705C7.18252 11.7682 7.05206 11.7394 6.9318 11.6861C6.81153 11.6328 6.70408 11.556 6.61622 11.4606C6.57165 11.4118 6.5486 11.3482 6.55196 11.2833C6.55531 11.2185 6.58481 11.1574 6.63419 11.1131C6.68358 11.0688 6.74895 11.0448 6.81642 11.0462C6.8839 11.0475 6.94816 11.0742 6.99557 11.1204C7.03324 11.1673 7.0816 11.2053 7.13691 11.2315C7.19222 11.2576 7.25303 11.2712 7.31465 11.2712C7.37628 11.2712 7.43708 11.2576 7.49239 11.2315C7.54771 11.2053 7.59606 11.1673 7.63374 11.1204C7.658 11.0954 7.68737 11.0754 7.72 11.0617C7.75263 11.0481 7.78783 11.041 7.82341 11.041C7.85899 11.041 7.89419 11.0481 7.92682 11.0617C7.95946 11.0754 7.98882 11.0954 8.01308 11.1204C8.05076 11.1673 8.09911 11.2053 8.15443 11.2315C8.20974 11.2576 8.27055 11.2712 8.33217 11.2712C8.39379 11.2712 8.4546 11.2576 8.50991 11.2315C8.56522 11.2053 8.61358 11.1673 8.65126 11.1204C8.69866 11.0742 8.76293 11.0475 8.8304 11.0462C8.89788 11.0448 8.96325 11.0688 9.01263 11.1131C9.06201 11.1574 9.09151 11.2185 9.09487 11.2833C9.09822 11.3482 9.07517 11.4118 9.0306 11.4606C8.94284 11.556 8.83548 11.6327 8.7153 11.6861C8.59511 11.7394 8.46474 11.7681 8.33242 11.7705H8.33192Z" fill="#383842"/>
<path d="M22.158 3.78125V18H19.2283V3.78125H22.158ZM27.8221 9.85547V12.1406H21.3572V9.85547H27.8221ZM28.5057 3.78125V6.07617H21.3572V3.78125H28.5057ZM32.5877 9.73828V18H29.7752V7.43359H32.4217L32.5877 9.73828ZM35.7713 7.36523L35.7225 9.97266C35.5858 9.95312 35.4197 9.93685 35.2244 9.92383C35.0356 9.9043 34.8631 9.89453 34.7068 9.89453C34.3097 9.89453 33.9647 9.94661 33.6717 10.0508C33.3852 10.1484 33.1443 10.2949 32.949 10.4902C32.7602 10.6855 32.617 10.9232 32.5193 11.2031C32.4282 11.4831 32.3761 11.8021 32.3631 12.1602L31.7967 11.9844C31.7967 11.3008 31.8651 10.6725 32.0018 10.0996C32.1385 9.52018 32.3371 9.01562 32.5975 8.58594C32.8644 8.15625 33.1899 7.82422 33.574 7.58984C33.9582 7.35547 34.3976 7.23828 34.8924 7.23828C35.0486 7.23828 35.2082 7.2513 35.3709 7.27734C35.5337 7.29688 35.6671 7.32617 35.7713 7.36523ZM36.3572 12.8242V12.6191C36.3572 11.8444 36.4679 11.1315 36.6893 10.4805C36.9106 9.82292 37.2329 9.25326 37.6561 8.77148C38.0792 8.28971 38.6001 7.91536 39.2186 7.64844C39.8371 7.375 40.5467 7.23828 41.3475 7.23828C42.1483 7.23828 42.8611 7.375 43.4861 7.64844C44.1111 7.91536 44.6352 8.28971 45.0584 8.77148C45.4881 9.25326 45.8136 9.82292 46.035 10.4805C46.2563 11.1315 46.367 11.8444 46.367 12.6191V12.8242C46.367 13.5924 46.2563 14.3053 46.035 14.9629C45.8136 15.6139 45.4881 16.1836 45.0584 16.6719C44.6352 17.1536 44.1144 17.528 43.4959 17.7949C42.8774 18.0618 42.1678 18.1953 41.367 18.1953C40.5662 18.1953 39.8533 18.0618 39.2283 17.7949C38.6098 17.528 38.0858 17.1536 37.6561 16.6719C37.2329 16.1836 36.9106 15.6139 36.6893 14.9629C36.4679 14.3053 36.3572 13.5924 36.3572 12.8242ZM39.1697 12.6191V12.8242C39.1697 13.2669 39.2088 13.6803 39.2869 14.0645C39.3651 14.4486 39.4887 14.7871 39.658 15.0801C39.8338 15.3665 40.0617 15.5911 40.3416 15.7539C40.6216 15.9167 40.9634 15.998 41.367 15.998C41.7576 15.998 42.0929 15.9167 42.3729 15.7539C42.6528 15.5911 42.8774 15.3665 43.0467 15.0801C43.216 14.7871 43.3397 14.4486 43.4178 14.0645C43.5024 13.6803 43.5447 13.2669 43.5447 12.8242V12.6191C43.5447 12.1895 43.5024 11.7858 43.4178 11.4082C43.3397 11.0241 43.2127 10.6855 43.0369 10.3926C42.8677 10.0931 42.643 9.85872 42.3631 9.68945C42.0832 9.52018 41.7446 9.43555 41.3475 9.43555C40.9503 9.43555 40.6118 9.52018 40.3318 9.68945C40.0584 9.85872 39.8338 10.0931 39.658 10.3926C39.4887 10.6855 39.3651 11.0241 39.2869 11.4082C39.2088 11.7858 39.1697 12.1895 39.1697 12.6191ZM50.8494 9.68945V18H48.0369V7.43359H50.6736L50.8494 9.68945ZM50.4393 12.3457H49.6776C49.6776 11.5645 49.7785 10.8613 49.9803 10.2363C50.1821 9.60482 50.4653 9.06771 50.8299 8.625C51.1945 8.17578 51.6274 7.83398 52.1287 7.59961C52.6365 7.35872 53.2029 7.23828 53.8279 7.23828C54.3227 7.23828 54.7752 7.3099 55.1854 7.45312C55.5955 7.59635 55.9471 7.82422 56.2401 8.13672C56.5395 8.44922 56.7674 8.86263 56.9236 9.37695C57.0864 9.89128 57.1678 10.5195 57.1678 11.2617V18H54.3358V11.252C54.3358 10.7832 54.2707 10.4186 54.1404 10.1582C54.0102 9.89779 53.8182 9.71549 53.5643 9.61133C53.3169 9.50065 53.0109 9.44531 52.6463 9.44531C52.2687 9.44531 51.9399 9.52018 51.66 9.66992C51.3865 9.81966 51.1587 10.028 50.9764 10.2949C50.8006 10.5553 50.6671 10.8613 50.576 11.2129C50.4848 11.5645 50.4393 11.9421 50.4393 12.3457ZM64.4822 7.43359V9.42578H58.3299V7.43359H64.4822ZM59.8533 4.82617H62.6658V14.8164C62.6658 15.1224 62.7049 15.3568 62.783 15.5195C62.8677 15.6823 62.9914 15.7962 63.1541 15.8613C63.3169 15.9199 63.522 15.9492 63.7693 15.9492C63.9451 15.9492 64.1014 15.9427 64.2381 15.9297C64.3813 15.9102 64.5018 15.8906 64.5994 15.8711L64.6092 17.9414C64.3683 18.0195 64.1079 18.0814 63.8279 18.127C63.548 18.1725 63.2387 18.1953 62.9002 18.1953C62.2817 18.1953 61.7414 18.0944 61.2791 17.8926C60.8234 17.6842 60.4718 17.3522 60.2244 16.8965C59.977 16.4408 59.8533 15.8418 59.8533 15.0996V4.82617Z" fill="white"/>
<path d="M75.3606 13.2832H78.2805C78.2219 14.2402 77.9583 15.0898 77.4895 15.832C77.0273 16.5742 76.3795 17.1536 75.5461 17.5703C74.7193 17.987 73.7232 18.1953 72.5579 18.1953C71.6464 18.1953 70.8293 18.0391 70.1067 17.7266C69.384 17.4076 68.7655 16.9518 68.2512 16.3594C67.7434 15.7669 67.356 15.0508 67.0891 14.2109C66.8222 13.3711 66.6887 12.4303 66.6887 11.3887V10.4023C66.6887 9.36068 66.8254 8.41992 67.0989 7.58008C67.3788 6.73372 67.776 6.01432 68.2903 5.42188C68.8111 4.82943 69.4329 4.3737 70.1555 4.05469C70.8782 3.73568 71.6855 3.57617 72.5774 3.57617C73.7623 3.57617 74.7616 3.79102 75.5754 4.2207C76.3958 4.65039 77.0305 5.24284 77.4797 5.99805C77.9355 6.75326 78.2089 7.61263 78.3 8.57617H75.3704C75.3378 8.00326 75.2239 7.51823 75.0286 7.12109C74.8333 6.71745 74.537 6.41471 74.1399 6.21289C73.7493 6.00456 73.2284 5.90039 72.5774 5.90039C72.0891 5.90039 71.6627 5.99154 71.2981 6.17383C70.9335 6.35612 70.6275 6.63281 70.3801 7.00391C70.1327 7.375 69.9472 7.84375 69.8235 8.41016C69.7063 8.97005 69.6477 9.6276 69.6477 10.3828V11.3887C69.6477 12.1243 69.703 12.7721 69.8137 13.332C69.9244 13.8854 70.0937 14.3542 70.3215 14.7383C70.5559 15.1159 70.8554 15.4023 71.22 15.5977C71.5911 15.7865 72.037 15.8809 72.5579 15.8809C73.1698 15.8809 73.6744 15.7832 74.0715 15.5879C74.4687 15.3926 74.7714 15.1029 74.9797 14.7188C75.1946 14.3346 75.3215 13.8561 75.3606 13.2832ZM85.7317 15.6172V10.9102C85.7317 10.5716 85.6764 10.2819 85.5657 10.041C85.455 9.79362 85.2825 9.60156 85.0481 9.46484C84.8202 9.32812 84.524 9.25977 84.1594 9.25977C83.8469 9.25977 83.5767 9.3151 83.3489 9.42578C83.121 9.52995 82.9452 9.68294 82.8215 9.88477C82.6978 10.0801 82.636 10.3112 82.636 10.5781H79.8235C79.8235 10.1289 79.9277 9.70247 80.136 9.29883C80.3443 8.89518 80.6471 8.54036 81.0442 8.23438C81.4413 7.92188 81.9133 7.67773 82.4602 7.50195C83.0136 7.32617 83.6321 7.23828 84.3157 7.23828C85.136 7.23828 85.8652 7.375 86.5032 7.64844C87.1412 7.92188 87.6425 8.33203 88.0071 8.87891C88.3782 9.42578 88.5637 10.1094 88.5637 10.9297V15.4512C88.5637 16.0306 88.5995 16.5059 88.6711 16.877C88.7428 17.2415 88.8469 17.5605 88.9836 17.834V18H86.1418C86.0051 17.7135 85.901 17.3555 85.8293 16.9258C85.7642 16.4896 85.7317 16.0534 85.7317 15.6172ZM86.1028 11.5645L86.1223 13.1562H84.55C84.179 13.1562 83.8567 13.1986 83.5833 13.2832C83.3098 13.3678 83.0852 13.4883 82.9094 13.6445C82.7336 13.7943 82.6034 13.9701 82.5188 14.1719C82.4407 14.3737 82.4016 14.5951 82.4016 14.8359C82.4016 15.0768 82.4569 15.2949 82.5676 15.4902C82.6783 15.679 82.8378 15.8288 83.0461 15.9395C83.2545 16.0436 83.4986 16.0957 83.7786 16.0957C84.2017 16.0957 84.5696 16.0111 84.8821 15.8418C85.1946 15.6725 85.4355 15.4642 85.6047 15.2168C85.7805 14.9694 85.8717 14.735 85.8782 14.5137L86.6204 15.7051C86.5162 15.972 86.373 16.2487 86.1907 16.5352C86.0149 16.8216 85.7903 17.0918 85.5168 17.3457C85.2434 17.5931 84.9146 17.7982 84.5305 17.9609C84.1464 18.1172 83.6907 18.1953 83.1633 18.1953C82.4928 18.1953 81.884 18.0618 81.3372 17.7949C80.7968 17.5215 80.3671 17.1471 80.0481 16.6719C79.7356 16.1901 79.5793 15.6432 79.5793 15.0312C79.5793 14.4779 79.6835 13.9863 79.8918 13.5566C80.1002 13.127 80.4062 12.7656 80.8098 12.4727C81.22 12.1732 81.731 11.9486 82.343 11.7988C82.955 11.6426 83.6646 11.5645 84.4719 11.5645H86.1028ZM95.9075 7.43359V9.42578H89.7551V7.43359H95.9075ZM91.2786 4.82617H94.0911V14.8164C94.0911 15.1224 94.1301 15.3568 94.2083 15.5195C94.2929 15.6823 94.4166 15.7962 94.5793 15.8613C94.7421 15.9199 94.9472 15.9492 95.1946 15.9492C95.3704 15.9492 95.5266 15.9427 95.6633 15.9297C95.8066 15.9102 95.927 15.8906 96.0247 15.8711L96.0344 17.9414C95.7935 18.0195 95.5331 18.0814 95.2532 18.127C94.9732 18.1725 94.664 18.1953 94.3254 18.1953C93.7069 18.1953 93.1666 18.0944 92.7043 17.8926C92.2486 17.6842 91.8971 17.3522 91.6497 16.8965C91.4023 16.4408 91.2786 15.8418 91.2786 15.0996V4.82617ZM99.7454 10.3926L102.48 8.625C102.883 8.35807 103.154 8.10091 103.29 7.85352C103.427 7.60612 103.495 7.32943 103.495 7.02344C103.495 6.71745 103.381 6.43424 103.154 6.17383C102.926 5.9069 102.607 5.77344 102.197 5.77344C101.904 5.77344 101.656 5.8418 101.454 5.97852C101.253 6.10872 101.1 6.28451 100.995 6.50586C100.898 6.72721 100.849 6.97461 100.849 7.24805C100.849 7.54102 100.927 7.84049 101.083 8.14648C101.24 8.44596 101.451 8.76497 101.718 9.10352C101.985 9.43555 102.281 9.79688 102.607 10.1875L109.316 18H106.122L100.654 11.6719C100.191 11.099 99.7877 10.5749 99.4426 10.0996C99.0976 9.61784 98.8274 9.14909 98.6321 8.69336C98.4368 8.23763 98.3391 7.76888 98.3391 7.28711C98.3391 6.54492 98.4986 5.89714 98.8176 5.34375C99.1366 4.78385 99.5859 4.35091 100.165 4.04492C100.745 3.73242 101.425 3.57617 102.206 3.57617C102.942 3.57617 103.58 3.72917 104.12 4.03516C104.661 4.33464 105.077 4.73177 105.37 5.22656C105.67 5.72135 105.82 6.26497 105.82 6.85742C105.82 7.30013 105.738 7.71029 105.575 8.08789C105.413 8.45898 105.188 8.80404 104.902 9.12305C104.615 9.43555 104.286 9.72526 103.915 9.99219L100.8 12.209C100.559 12.4303 100.377 12.6484 100.253 12.8633C100.129 13.0781 100.045 13.2832 99.9993 13.4785C99.9537 13.6673 99.9309 13.8496 99.9309 14.0254C99.9309 14.403 100.012 14.7415 100.175 15.041C100.338 15.3405 100.566 15.5749 100.859 15.7441C101.152 15.9134 101.493 15.998 101.884 15.998C102.418 15.998 102.935 15.8809 103.437 15.6465C103.938 15.4121 104.387 15.0768 104.784 14.6406C105.182 14.1979 105.497 13.6738 105.732 13.0684C105.966 12.4629 106.083 11.7956 106.083 11.0664H108.466C108.466 11.7956 108.394 12.4889 108.251 13.1465C108.108 13.7975 107.877 14.403 107.558 14.9629C107.239 15.5163 106.816 16.0078 106.288 16.4375C106.249 16.4701 106.194 16.5189 106.122 16.584C106.057 16.6426 106.002 16.6882 105.956 16.7207C105.331 17.222 104.68 17.5964 104.003 17.8438C103.326 18.0846 102.571 18.2051 101.738 18.2051C100.787 18.2051 99.9635 18.0326 99.2668 17.6875C98.5767 17.3424 98.0429 16.8672 97.6653 16.2617C97.2942 15.6562 97.1086 14.9629 97.1086 14.1816C97.1086 13.6087 97.2193 13.1107 97.4407 12.6875C97.6685 12.2578 97.981 11.8607 98.3782 11.4961C98.7753 11.1315 99.231 10.7637 99.7454 10.3926ZM115.214 18H112.118L112.138 15.7148H115.214C115.982 15.7148 116.63 15.5423 117.157 15.1973C117.685 14.8457 118.082 14.3346 118.349 13.6641C118.622 12.9935 118.759 12.1829 118.759 11.2324V10.5391C118.759 9.8099 118.681 9.16862 118.525 8.61523C118.375 8.06185 118.15 7.59635 117.851 7.21875C117.551 6.84115 117.184 6.55794 116.747 6.36914C116.311 6.17383 115.81 6.07617 115.243 6.07617H112.06V3.78125H115.243C116.194 3.78125 117.063 3.94401 117.851 4.26953C118.645 4.58854 119.332 5.04753 119.911 5.64648C120.491 6.24544 120.937 6.96159 121.249 7.79492C121.568 8.62174 121.728 9.54297 121.728 10.5586V11.2324C121.728 12.2415 121.568 13.1628 121.249 13.9961C120.937 14.8294 120.491 15.5456 119.911 16.1445C119.338 16.737 118.652 17.196 117.851 17.5215C117.057 17.8405 116.178 18 115.214 18ZM113.779 3.78125V18H110.849V3.78125H113.779ZM123.232 12.8242V12.6191C123.232 11.8444 123.342 11.1315 123.564 10.4805C123.785 9.82292 124.107 9.25326 124.531 8.77148C124.954 8.28971 125.475 7.91536 126.093 7.64844C126.712 7.375 127.421 7.23828 128.222 7.23828C129.023 7.23828 129.736 7.375 130.361 7.64844C130.986 7.91536 131.51 8.28971 131.933 8.77148C132.363 9.25326 132.688 9.82292 132.909 10.4805C133.131 11.1315 133.241 11.8444 133.241 12.6191V12.8242C133.241 13.5924 133.131 14.3053 132.909 14.9629C132.688 15.6139 132.363 16.1836 131.933 16.6719C131.51 17.1536 130.989 17.528 130.37 17.7949C129.752 18.0618 129.042 18.1953 128.241 18.1953C127.441 18.1953 126.728 18.0618 126.103 17.7949C125.484 17.528 124.96 17.1536 124.531 16.6719C124.107 16.1836 123.785 15.6139 123.564 14.9629C123.342 14.3053 123.232 13.5924 123.232 12.8242ZM126.044 12.6191V12.8242C126.044 13.2669 126.083 13.6803 126.161 14.0645C126.24 14.4486 126.363 14.7871 126.532 15.0801C126.708 15.3665 126.936 15.5911 127.216 15.7539C127.496 15.9167 127.838 15.998 128.241 15.998C128.632 15.998 128.967 15.9167 129.247 15.7539C129.527 15.5911 129.752 15.3665 129.921 15.0801C130.09 14.7871 130.214 14.4486 130.292 14.0645C130.377 13.6803 130.419 13.2669 130.419 12.8242V12.6191C130.419 12.1895 130.377 11.7858 130.292 11.4082C130.214 11.0241 130.087 10.6855 129.911 10.3926C129.742 10.0931 129.517 9.85872 129.238 9.68945C128.958 9.52018 128.619 9.43555 128.222 9.43555C127.825 9.43555 127.486 9.52018 127.206 9.68945C126.933 9.85872 126.708 10.0931 126.532 10.3926C126.363 10.6855 126.24 11.0241 126.161 11.4082C126.083 11.7858 126.044 12.1895 126.044 12.6191ZM141.659 7.43359H144.208V17.6484C144.208 18.612 143.993 19.429 143.564 20.0996C143.141 20.7767 142.548 21.2878 141.786 21.6328C141.025 21.9844 140.139 22.1602 139.13 22.1602C138.687 22.1602 138.219 22.1016 137.724 21.9844C137.236 21.8672 136.767 21.6849 136.318 21.4375C135.875 21.1901 135.504 20.8776 135.204 20.5L136.445 18.8398C136.77 19.2174 137.148 19.5104 137.577 19.7188C138.007 19.9336 138.482 20.041 139.003 20.041C139.511 20.041 139.941 19.9466 140.292 19.7578C140.644 19.5755 140.914 19.3053 141.103 18.9473C141.292 18.5957 141.386 18.1693 141.386 17.668V9.875L141.659 7.43359ZM134.55 12.8438V12.6387C134.55 11.8314 134.648 11.099 134.843 10.4414C135.045 9.77734 135.328 9.20768 135.693 8.73242C136.064 8.25716 136.513 7.88932 137.04 7.62891C137.568 7.36849 138.163 7.23828 138.827 7.23828C139.531 7.23828 140.12 7.36849 140.595 7.62891C141.07 7.88932 141.461 8.26042 141.767 8.74219C142.073 9.21745 142.31 9.7806 142.48 10.4316C142.656 11.0762 142.792 11.7826 142.89 12.5508V13C142.792 13.7357 142.646 14.4193 142.45 15.0508C142.255 15.6823 141.998 16.2357 141.679 16.7109C141.36 17.1797 140.963 17.5443 140.488 17.8047C140.019 18.0651 139.459 18.1953 138.808 18.1953C138.157 18.1953 137.568 18.0618 137.04 17.7949C136.519 17.528 136.073 17.1536 135.702 16.6719C135.331 16.1901 135.045 15.6237 134.843 14.9727C134.648 14.3216 134.55 13.612 134.55 12.8438ZM137.363 12.6387V12.8438C137.363 13.2799 137.405 13.6868 137.49 14.0645C137.574 14.4421 137.704 14.7773 137.88 15.0703C138.062 15.3568 138.287 15.5814 138.554 15.7441C138.827 15.9004 139.15 15.9785 139.521 15.9785C140.035 15.9785 140.455 15.8711 140.781 15.6562C141.106 15.4349 141.35 15.1322 141.513 14.748C141.676 14.3639 141.77 13.9212 141.796 13.4199V12.1406C141.783 11.7305 141.728 11.3626 141.63 11.0371C141.532 10.7051 141.396 10.4219 141.22 10.1875C141.044 9.95312 140.816 9.77083 140.536 9.64062C140.256 9.51042 139.924 9.44531 139.54 9.44531C139.169 9.44531 138.847 9.52995 138.573 9.69922C138.307 9.86198 138.082 10.0866 137.9 10.373C137.724 10.6595 137.59 10.998 137.499 11.3887C137.408 11.7728 137.363 12.1895 137.363 12.6387Z" fill="#F0A83E"/>
<defs>
<linearGradient id="paint0_linear_1_14" x1="160.265" y1="6.43144" x2="166.002" y2="6.43144" gradientUnits="userSpaceOnUse">
<stop stop-color="#4F4C5F"/>
<stop offset="1" stop-color="#77718A"/>
</linearGradient>
<linearGradient id="paint1_linear_1_14" x1="147.66" y1="6.43144" x2="153.397" y2="6.43144" gradientUnits="userSpaceOnUse">
<stop stop-color="#77718A"/>
<stop offset="1" stop-color="#4F4C5F"/>
</linearGradient>
<linearGradient id="paint2_linear_1_14" x1="156.786" y1="18.3759" x2="156.786" y2="5.20574" gradientUnits="userSpaceOnUse">
<stop stop-color="#F0A83E"/>
<stop offset="1" stop-color="#FFF5E3"/>
</linearGradient>
<linearGradient id="paint3_linear_1_14" x1="158.108" y1="9.70336" x2="164.216" y2="9.70336" gradientUnits="userSpaceOnUse">
<stop stop-color="#EFC4AB"/>
<stop offset="1" stop-color="#3C2313"/>
</linearGradient>
<linearGradient id="paint4_linear_1_14" x1="980.617" y1="1492.3" x2="1671.34" y2="1492.3" gradientUnits="userSpaceOnUse">
<stop stop-color="#4F4C5F"/>
<stop offset="1" stop-color="#77718A"/>
</linearGradient>
<linearGradient id="paint5_linear_1_14" x1="11.5863" y1="7.62681" x2="15.647" y2="7.62681" gradientUnits="userSpaceOnUse">
<stop stop-color="#FD869C"/>
<stop offset="1" stop-color="#FDB0BF"/>
</linearGradient>
<linearGradient id="paint6_linear_1_14" x1="-19.9998" y1="1492.3" x2="670.724" y2="1492.3" gradientUnits="userSpaceOnUse">
<stop stop-color="#77718A"/>
<stop offset="1" stop-color="#4F4C5F"/>
</linearGradient>
<linearGradient id="paint7_linear_1_14" x1="-0.000224591" y1="7.62681" x2="4.061" y2="7.62681" gradientUnits="userSpaceOnUse">
<stop stop-color="#FDB0BF"/>
<stop offset="1" stop-color="#FD869C"/>
</linearGradient>
<linearGradient id="paint8_linear_1_14" x1="7.82352" y1="12.6512" x2="7.82352" y2="4.96422" gradientUnits="userSpaceOnUse">
<stop stop-color="#FDB58A"/>
<stop offset="1" stop-color="#3C2313"/>
</linearGradient>
<linearGradient id="paint9_linear_1_14" x1="7.82351" y1="17.1232" x2="7.82351" y2="7.21538" gradientUnits="userSpaceOnUse">
<stop stop-color="#FFF5E3"/>
<stop offset="1" stop-color="#F0A83E"/>
</linearGradient>
</defs>
</svg>
